<mxfile host="app.diagrams.net" modified="2021-05-19T02:43:59.596Z" agent="5.0 (Windows NT 10.0; Win64; x64) AppleWebKit/537.36 (KHTML, like Gecko) Chrome/90.0.4430.212 Safari/537.36" etag="s-I_Zp0g-3tlpsIVWCMW" version="14.6.13" type="github">
  <diagram id="R2lEEEUBdFMjLlhIrx00" name="Page-1">
    <mxGraphModel dx="1092" dy="716" grid="1" gridSize="10" guides="1" tooltips="1" connect="1" arrows="1" fold="1" page="1" pageScale="1" pageWidth="850" pageHeight="1100" math="0" shadow="0" extFonts="Permanent Marker^https://fonts.googleapis.com/css?family=Permanent+Marker">
      <root>
        <mxCell id="0" />
        <mxCell id="1" parent="0" />
        <mxCell id="hjBMN0ESbZGBYcGNyfqj-2" style="edgeStyle=orthogonalEdgeStyle;rounded=0;orthogonalLoop=1;jettySize=auto;html=1;entryX=0;entryY=0.5;entryDx=0;entryDy=0;fillColor=#B2C9AB;strokeColor=#788AA3;fontColor=#46495D;exitX=1;exitY=0.5;exitDx=0;exitDy=0;" parent="1" source="7kK_4Ma0JGCiKMvr0xMD-1" target="hjBMN0ESbZGBYcGNyfqj-1" edge="1">
          <mxGeometry relative="1" as="geometry">
            <Array as="points">
              <mxPoint x="210" y="398" />
              <mxPoint x="210" y="266" />
            </Array>
          </mxGeometry>
        </mxCell>
        <mxCell id="hjBMN0ESbZGBYcGNyfqj-5" style="edgeStyle=orthogonalEdgeStyle;rounded=0;orthogonalLoop=1;jettySize=auto;html=1;entryX=0;entryY=0.5;entryDx=0;entryDy=0;fillColor=#B2C9AB;strokeColor=#788AA3;fontColor=#46495D;" parent="1" source="7kK_4Ma0JGCiKMvr0xMD-1" target="hjBMN0ESbZGBYcGNyfqj-4" edge="1">
          <mxGeometry relative="1" as="geometry" />
        </mxCell>
        <mxCell id="hjBMN0ESbZGBYcGNyfqj-22" style="edgeStyle=orthogonalEdgeStyle;rounded=0;orthogonalLoop=1;jettySize=auto;html=1;fillColor=#B2C9AB;strokeColor=#788AA3;entryX=0;entryY=0.5;entryDx=0;entryDy=0;fontColor=#46495D;exitX=1;exitY=0.5;exitDx=0;exitDy=0;" parent="1" source="7kK_4Ma0JGCiKMvr0xMD-1" target="O8F0JCfiDlLxA4v2om1o-1" edge="1">
          <mxGeometry relative="1" as="geometry">
            <mxPoint x="175" y="470" as="targetPoint" />
            <Array as="points">
              <mxPoint x="210" y="398" />
              <mxPoint x="210" y="555" />
            </Array>
          </mxGeometry>
        </mxCell>
        <mxCell id="7kK_4Ma0JGCiKMvr0xMD-1" value="&lt;span style=&quot;font-size: 10pt&quot;&gt;&lt;font face=&quot;Times New Roman&quot;&gt;Security Application based on PPG&lt;/font&gt;&lt;/span&gt;" style="rounded=0;whiteSpace=wrap;html=1;fillColor=#B2C9AB;strokeColor=#788AA3;fontColor=#46495D;" parent="1" vertex="1">
          <mxGeometry x="80" y="367.5" width="120" height="60" as="geometry" />
        </mxCell>
        <mxCell id="hjBMN0ESbZGBYcGNyfqj-33" style="edgeStyle=orthogonalEdgeStyle;rounded=0;orthogonalLoop=1;jettySize=auto;html=1;entryX=0;entryY=0.5;entryDx=0;entryDy=0;fillColor=#B2C9AB;strokeColor=#788AA3;exitX=1;exitY=0.5;exitDx=0;exitDy=0;fontColor=#46495D;" parent="1" source="O8F0JCfiDlLxA4v2om1o-4" target="hjBMN0ESbZGBYcGNyfqj-32" edge="1">
          <mxGeometry relative="1" as="geometry">
            <mxPoint x="595" y="600.05" as="sourcePoint" />
          </mxGeometry>
        </mxCell>
        <mxCell id="hjBMN0ESbZGBYcGNyfqj-48" style="edgeStyle=orthogonalEdgeStyle;rounded=0;orthogonalLoop=1;jettySize=auto;html=1;entryX=0;entryY=0.5;entryDx=0;entryDy=0;fillColor=#B2C9AB;strokeColor=#788AA3;exitX=1;exitY=0.5;exitDx=0;exitDy=0;fontColor=#46495D;" parent="1" source="O8F0JCfiDlLxA4v2om1o-4" target="hjBMN0ESbZGBYcGNyfqj-47" edge="1">
          <mxGeometry relative="1" as="geometry">
            <mxPoint x="595" y="600.05" as="sourcePoint" />
          </mxGeometry>
        </mxCell>
        <mxCell id="hjBMN0ESbZGBYcGNyfqj-50" style="edgeStyle=orthogonalEdgeStyle;rounded=0;orthogonalLoop=1;jettySize=auto;html=1;entryX=0;entryY=0.5;entryDx=0;entryDy=0;fillColor=#B2C9AB;strokeColor=#788AA3;exitX=1;exitY=0.5;exitDx=0;exitDy=0;fontColor=#46495D;" parent="1" source="O8F0JCfiDlLxA4v2om1o-4" target="hjBMN0ESbZGBYcGNyfqj-49" edge="1">
          <mxGeometry relative="1" as="geometry">
            <mxPoint x="595" y="600.05" as="sourcePoint" />
          </mxGeometry>
        </mxCell>
        <mxCell id="hjBMN0ESbZGBYcGNyfqj-52" style="edgeStyle=orthogonalEdgeStyle;rounded=0;orthogonalLoop=1;jettySize=auto;html=1;entryX=0;entryY=0.5;entryDx=0;entryDy=0;fillColor=#B2C9AB;strokeColor=#788AA3;exitX=1;exitY=0.5;exitDx=0;exitDy=0;fontColor=#46495D;" parent="1" source="O8F0JCfiDlLxA4v2om1o-4" target="hjBMN0ESbZGBYcGNyfqj-51" edge="1">
          <mxGeometry relative="1" as="geometry">
            <mxPoint x="595" y="600.05" as="sourcePoint" />
          </mxGeometry>
        </mxCell>
        <mxCell id="hjBMN0ESbZGBYcGNyfqj-8" style="edgeStyle=orthogonalEdgeStyle;rounded=0;orthogonalLoop=1;jettySize=auto;html=1;entryX=0;entryY=0.5;entryDx=0;entryDy=0;fillColor=#B2C9AB;strokeColor=#788AA3;fontColor=#46495D;" parent="1" source="hjBMN0ESbZGBYcGNyfqj-1" target="hjBMN0ESbZGBYcGNyfqj-6" edge="1">
          <mxGeometry relative="1" as="geometry" />
        </mxCell>
        <mxCell id="hjBMN0ESbZGBYcGNyfqj-9" style="edgeStyle=orthogonalEdgeStyle;rounded=0;orthogonalLoop=1;jettySize=auto;html=1;entryX=0;entryY=0.5;entryDx=0;entryDy=0;fillColor=#B2C9AB;strokeColor=#788AA3;fontColor=#46495D;" parent="1" source="hjBMN0ESbZGBYcGNyfqj-1" target="hjBMN0ESbZGBYcGNyfqj-7" edge="1">
          <mxGeometry relative="1" as="geometry" />
        </mxCell>
        <mxCell id="hjBMN0ESbZGBYcGNyfqj-1" value="&lt;span style=&quot;font-size: 10pt&quot;&gt;&lt;font face=&quot;Times New Roman&quot;&gt;Secure communication&lt;/font&gt;&lt;/span&gt;" style="rounded=0;whiteSpace=wrap;html=1;fillColor=#dae8fc;strokeColor=#6c8ebf;" parent="1" vertex="1">
          <mxGeometry x="230" y="240" width="120" height="50" as="geometry" />
        </mxCell>
        <mxCell id="hjBMN0ESbZGBYcGNyfqj-27" style="edgeStyle=orthogonalEdgeStyle;rounded=0;orthogonalLoop=1;jettySize=auto;html=1;entryX=0;entryY=0.5;entryDx=0;entryDy=0;fillColor=#B2C9AB;strokeColor=#788AA3;fontColor=#46495D;" parent="1" source="hjBMN0ESbZGBYcGNyfqj-4" target="hjBMN0ESbZGBYcGNyfqj-26" edge="1">
          <mxGeometry relative="1" as="geometry" />
        </mxCell>
        <mxCell id="hjBMN0ESbZGBYcGNyfqj-29" style="edgeStyle=orthogonalEdgeStyle;rounded=0;orthogonalLoop=1;jettySize=auto;html=1;entryX=0;entryY=0.5;entryDx=0;entryDy=0;fillColor=#B2C9AB;strokeColor=#788AA3;fontColor=#46495D;" parent="1" source="hjBMN0ESbZGBYcGNyfqj-4" target="hjBMN0ESbZGBYcGNyfqj-28" edge="1">
          <mxGeometry relative="1" as="geometry" />
        </mxCell>
        <mxCell id="O8F0JCfiDlLxA4v2om1o-23" style="edgeStyle=orthogonalEdgeStyle;rounded=0;orthogonalLoop=1;jettySize=auto;html=1;entryX=0;entryY=0.5;entryDx=0;entryDy=0;fillColor=#B2C9AB;strokeColor=#788AA3;fontColor=#46495D;" parent="1" source="hjBMN0ESbZGBYcGNyfqj-4" target="hjBMN0ESbZGBYcGNyfqj-23" edge="1">
          <mxGeometry relative="1" as="geometry" />
        </mxCell>
        <mxCell id="hjBMN0ESbZGBYcGNyfqj-4" value="&lt;span style=&quot;font-family: &amp;#34;noto_regular&amp;#34; ; font-size: 10pt&quot;&gt;Attack&lt;/span&gt;" style="rounded=0;whiteSpace=wrap;html=1;fillColor=#dae8fc;strokeColor=#6c8ebf;" parent="1" vertex="1">
          <mxGeometry x="230" y="376.87" width="120" height="40" as="geometry" />
        </mxCell>
        <mxCell id="hjBMN0ESbZGBYcGNyfqj-12" style="edgeStyle=orthogonalEdgeStyle;rounded=0;orthogonalLoop=1;jettySize=auto;html=1;entryX=0;entryY=0.5;entryDx=0;entryDy=0;fillColor=#B2C9AB;strokeColor=#788AA3;fontColor=#46495D;" parent="1" source="hjBMN0ESbZGBYcGNyfqj-6" target="hjBMN0ESbZGBYcGNyfqj-10" edge="1">
          <mxGeometry relative="1" as="geometry" />
        </mxCell>
        <mxCell id="hjBMN0ESbZGBYcGNyfqj-13" style="edgeStyle=orthogonalEdgeStyle;rounded=0;orthogonalLoop=1;jettySize=auto;html=1;entryX=0;entryY=0.5;entryDx=0;entryDy=0;fillColor=#B2C9AB;strokeColor=#788AA3;fontColor=#46495D;" parent="1" source="hjBMN0ESbZGBYcGNyfqj-6" target="hjBMN0ESbZGBYcGNyfqj-11" edge="1">
          <mxGeometry relative="1" as="geometry" />
        </mxCell>
        <mxCell id="hjBMN0ESbZGBYcGNyfqj-6" value="&lt;span style=&quot;font-family: &amp;#34;noto_regular&amp;#34; ; font-size: 10pt&quot;&gt;Encryption&lt;/span&gt;" style="rounded=0;whiteSpace=wrap;html=1;fillColor=#e1d5e7;strokeColor=#9673a6;" parent="1" vertex="1">
          <mxGeometry x="390" y="226.25" width="100" height="30" as="geometry" />
        </mxCell>
        <mxCell id="hjBMN0ESbZGBYcGNyfqj-7" value="&lt;span style=&quot;font-family: &amp;#34;noto_regular&amp;#34; ; font-size: 10pt&quot;&gt;Steganography&lt;/span&gt;" style="rounded=0;whiteSpace=wrap;html=1;fillColor=#e1d5e7;strokeColor=#9673a6;" parent="1" vertex="1">
          <mxGeometry x="390" y="266.25" width="100" height="30" as="geometry" />
        </mxCell>
        <mxCell id="O8F0JCfiDlLxA4v2om1o-10" style="edgeStyle=orthogonalEdgeStyle;rounded=0;orthogonalLoop=1;jettySize=auto;html=1;entryX=0;entryY=0.5;entryDx=0;entryDy=0;fillColor=#B2C9AB;strokeColor=#788AA3;fontColor=#46495D;" parent="1" source="hjBMN0ESbZGBYcGNyfqj-10" target="O8F0JCfiDlLxA4v2om1o-11" edge="1">
          <mxGeometry relative="1" as="geometry">
            <mxPoint x="680" y="130" as="targetPoint" />
          </mxGeometry>
        </mxCell>
        <mxCell id="O8F0JCfiDlLxA4v2om1o-13" style="edgeStyle=orthogonalEdgeStyle;rounded=0;orthogonalLoop=1;jettySize=auto;html=1;entryX=0;entryY=0.5;entryDx=0;entryDy=0;fillColor=#B2C9AB;strokeColor=#788AA3;fontColor=#46495D;" parent="1" source="hjBMN0ESbZGBYcGNyfqj-10" target="O8F0JCfiDlLxA4v2om1o-12" edge="1">
          <mxGeometry relative="1" as="geometry" />
        </mxCell>
        <mxCell id="hjBMN0ESbZGBYcGNyfqj-10" value="&lt;span style=&quot;font-family: &amp;#34;noto_regular&amp;#34; ; font-size: 10pt&quot;&gt;Generate the entity identifier&lt;/span&gt;" style="rounded=0;whiteSpace=wrap;html=1;fillColor=#d5e8d4;strokeColor=#82b366;" parent="1" vertex="1">
          <mxGeometry x="535" y="130" width="120" height="45" as="geometry" />
        </mxCell>
        <mxCell id="hjBMN0ESbZGBYcGNyfqj-18" style="edgeStyle=orthogonalEdgeStyle;rounded=0;orthogonalLoop=1;jettySize=auto;html=1;entryX=0;entryY=0.5;entryDx=0;entryDy=0;fillColor=#B2C9AB;strokeColor=#788AA3;fontColor=#46495D;" parent="1" source="hjBMN0ESbZGBYcGNyfqj-11" target="hjBMN0ESbZGBYcGNyfqj-14" edge="1">
          <mxGeometry relative="1" as="geometry" />
        </mxCell>
        <mxCell id="hjBMN0ESbZGBYcGNyfqj-19" style="edgeStyle=orthogonalEdgeStyle;rounded=0;orthogonalLoop=1;jettySize=auto;html=1;fillColor=#B2C9AB;strokeColor=#788AA3;entryX=0;entryY=0.5;entryDx=0;entryDy=0;fontColor=#46495D;" parent="1" source="hjBMN0ESbZGBYcGNyfqj-11" target="hjBMN0ESbZGBYcGNyfqj-15" edge="1">
          <mxGeometry relative="1" as="geometry" />
        </mxCell>
        <mxCell id="hjBMN0ESbZGBYcGNyfqj-20" style="edgeStyle=orthogonalEdgeStyle;rounded=0;orthogonalLoop=1;jettySize=auto;html=1;entryX=0;entryY=0.5;entryDx=0;entryDy=0;fillColor=#B2C9AB;strokeColor=#788AA3;fontColor=#46495D;" parent="1" source="hjBMN0ESbZGBYcGNyfqj-11" target="hjBMN0ESbZGBYcGNyfqj-16" edge="1">
          <mxGeometry relative="1" as="geometry" />
        </mxCell>
        <mxCell id="hjBMN0ESbZGBYcGNyfqj-21" style="edgeStyle=orthogonalEdgeStyle;rounded=0;orthogonalLoop=1;jettySize=auto;html=1;entryX=0;entryY=0.5;entryDx=0;entryDy=0;fillColor=#B2C9AB;strokeColor=#788AA3;fontColor=#46495D;" parent="1" source="hjBMN0ESbZGBYcGNyfqj-11" target="hjBMN0ESbZGBYcGNyfqj-17" edge="1">
          <mxGeometry relative="1" as="geometry" />
        </mxCell>
        <mxCell id="hjBMN0ESbZGBYcGNyfqj-11" value="&lt;span style=&quot;font-family: &amp;#34;noto_regular&amp;#34; ; font-size: 10pt&quot;&gt;Key distribution solution&lt;/span&gt;" style="rounded=0;whiteSpace=wrap;html=1;fillColor=#d5e8d4;strokeColor=#82b366;" parent="1" vertex="1">
          <mxGeometry x="535" y="291.25" width="120" height="40" as="geometry" />
        </mxCell>
        <mxCell id="hjBMN0ESbZGBYcGNyfqj-14" value="&lt;span style=&quot;font-size: 10pt&quot;&gt;&lt;font face=&quot;Times New Roman&quot;&gt;Fuzzy commitment scheme&lt;/font&gt;&lt;/span&gt;" style="rounded=0;whiteSpace=wrap;html=1;fillColor=#b0e3e6;strokeColor=#0e8088;" parent="1" vertex="1">
          <mxGeometry x="695" y="210" width="120" height="40" as="geometry" />
        </mxCell>
        <mxCell id="hjBMN0ESbZGBYcGNyfqj-15" value="&lt;span style=&quot;font-family: &amp;#34;noto_regular&amp;#34; ; font-size: 10pt&quot;&gt;Fuzzy vault scheme&lt;/span&gt;" style="rounded=0;whiteSpace=wrap;html=1;fillColor=#b0e3e6;strokeColor=#0e8088;" parent="1" vertex="1">
          <mxGeometry x="695" y="262.5" width="120" height="40" as="geometry" />
        </mxCell>
        <mxCell id="hjBMN0ESbZGBYcGNyfqj-16" value="&lt;span style=&quot;font-size: 10pt&quot;&gt;&lt;font face=&quot;Times New Roman&quot;&gt;Ordered key agreement&lt;/font&gt;&lt;/span&gt;" style="rounded=0;whiteSpace=wrap;html=1;fillColor=#b0e3e6;strokeColor=#0e8088;" parent="1" vertex="1">
          <mxGeometry x="695" y="312.5" width="120" height="40" as="geometry" />
        </mxCell>
        <mxCell id="hjBMN0ESbZGBYcGNyfqj-17" value="&lt;span style=&quot;font-family: &amp;#34;noto_regular&amp;#34; ; font-size: 10pt&quot;&gt;Energy-Efficient key agreement&lt;/span&gt;" style="rounded=0;whiteSpace=wrap;html=1;fillColor=#b0e3e6;strokeColor=#0e8088;" parent="1" vertex="1">
          <mxGeometry x="695" y="367.5" width="120" height="40" as="geometry" />
        </mxCell>
        <mxCell id="hjBMN0ESbZGBYcGNyfqj-23" value="&lt;span style=&quot;font-family: &amp;#34;noto_regular&amp;#34; ; font-size: 10pt&quot;&gt;HD Camera&lt;/span&gt;" style="rounded=0;whiteSpace=wrap;html=1;fillColor=#e1d5e7;strokeColor=#9673a6;" parent="1" vertex="1">
          <mxGeometry x="390" y="345.62" width="110" height="31.25" as="geometry" />
        </mxCell>
        <mxCell id="hjBMN0ESbZGBYcGNyfqj-26" value="&lt;span style=&quot;font-family: &amp;#34;noto_regular&amp;#34; ; font-size: 10pt&quot;&gt;Radar&lt;/span&gt;" style="rounded=0;whiteSpace=wrap;html=1;fillColor=#e1d5e7;strokeColor=#9673a6;" parent="1" vertex="1">
          <mxGeometry x="390" y="381.25" width="110" height="31.25" as="geometry" />
        </mxCell>
        <mxCell id="hjBMN0ESbZGBYcGNyfqj-28" value="&lt;span style=&quot;font-family: &amp;#34;times new roman&amp;#34; ; font-size: 13px ; text-align: left&quot;&gt;Adversarial &lt;/span&gt;" style="rounded=0;whiteSpace=wrap;html=1;fillColor=#e1d5e7;strokeColor=#9673a6;" parent="1" vertex="1">
          <mxGeometry x="390" y="416.87" width="110" height="31.25" as="geometry" />
        </mxCell>
        <mxCell id="hjBMN0ESbZGBYcGNyfqj-32" value="&lt;span style=&quot;font-family: &amp;#34;noto_regular&amp;#34; ; font-size: 10pt&quot;&gt;Eliminate noise&lt;/span&gt;" style="rounded=0;whiteSpace=wrap;html=1;fillColor=#d5e8d4;strokeColor=#82b366;" parent="1" vertex="1">
          <mxGeometry x="540" y="421.24" width="120" height="31.25" as="geometry" />
        </mxCell>
        <mxCell id="hjBMN0ESbZGBYcGNyfqj-42" style="edgeStyle=orthogonalEdgeStyle;rounded=0;orthogonalLoop=1;jettySize=auto;html=1;entryX=0;entryY=0.5;entryDx=0;entryDy=0;fillColor=#B2C9AB;strokeColor=#788AA3;exitX=1;exitY=0.5;exitDx=0;exitDy=0;fontColor=#46495D;" parent="1" source="hjBMN0ESbZGBYcGNyfqj-32" target="hjBMN0ESbZGBYcGNyfqj-41" edge="1">
          <mxGeometry relative="1" as="geometry">
            <mxPoint x="695" y="569.9950000000001" as="sourcePoint" />
          </mxGeometry>
        </mxCell>
        <mxCell id="hjBMN0ESbZGBYcGNyfqj-44" style="edgeStyle=orthogonalEdgeStyle;rounded=0;orthogonalLoop=1;jettySize=auto;html=1;entryX=0;entryY=0.5;entryDx=0;entryDy=0;fillColor=#B2C9AB;strokeColor=#788AA3;exitX=1;exitY=0.5;exitDx=0;exitDy=0;fontColor=#46495D;" parent="1" source="hjBMN0ESbZGBYcGNyfqj-32" target="hjBMN0ESbZGBYcGNyfqj-43" edge="1">
          <mxGeometry relative="1" as="geometry">
            <mxPoint x="695" y="569.9950000000001" as="sourcePoint" />
          </mxGeometry>
        </mxCell>
        <mxCell id="hjBMN0ESbZGBYcGNyfqj-46" style="edgeStyle=orthogonalEdgeStyle;rounded=0;orthogonalLoop=1;jettySize=auto;html=1;entryX=0;entryY=0.5;entryDx=0;entryDy=0;fillColor=#B2C9AB;strokeColor=#788AA3;exitX=1;exitY=0.5;exitDx=0;exitDy=0;fontColor=#46495D;" parent="1" source="hjBMN0ESbZGBYcGNyfqj-32" target="hjBMN0ESbZGBYcGNyfqj-45" edge="1">
          <mxGeometry relative="1" as="geometry">
            <mxPoint x="695" y="569.9950000000001" as="sourcePoint" />
          </mxGeometry>
        </mxCell>
        <mxCell id="hjBMN0ESbZGBYcGNyfqj-41" value="&lt;font face=&quot;noto_regular&quot;&gt;&lt;span style=&quot;font-size: 13.3333px&quot;&gt;Motion Artifacts&lt;/span&gt;&lt;/font&gt;" style="rounded=0;whiteSpace=wrap;html=1;fillColor=#b0e3e6;strokeColor=#0e8088;" parent="1" vertex="1">
          <mxGeometry x="705" y="421.24" width="110" height="30" as="geometry" />
        </mxCell>
        <mxCell id="hjBMN0ESbZGBYcGNyfqj-43" value="&lt;font face=&quot;noto_regular&quot;&gt;&lt;span style=&quot;font-size: 13.3333px&quot;&gt;Lighting conditions&lt;/span&gt;&lt;/font&gt;" style="rounded=0;whiteSpace=wrap;html=1;fillColor=#b0e3e6;strokeColor=#0e8088;" parent="1" vertex="1">
          <mxGeometry x="705" y="456.87" width="110" height="30" as="geometry" />
        </mxCell>
        <mxCell id="hjBMN0ESbZGBYcGNyfqj-45" value="&lt;font face=&quot;noto_regular&quot;&gt;&lt;span style=&quot;font-size: 13.3333px&quot;&gt;Slight variation of device&lt;/span&gt;&lt;/font&gt;" style="rounded=0;whiteSpace=wrap;html=1;fillColor=#b0e3e6;strokeColor=#0e8088;" parent="1" vertex="1">
          <mxGeometry x="705" y="496.87" width="110" height="38.12" as="geometry" />
        </mxCell>
        <mxCell id="hjBMN0ESbZGBYcGNyfqj-47" value="&lt;span style=&quot;font-family: &amp;#34;noto_regular&amp;#34; ; font-size: 10pt&quot;&gt;Continuous Authentication&lt;/span&gt;" style="rounded=0;whiteSpace=wrap;html=1;fillColor=#d5e8d4;strokeColor=#82b366;" parent="1" vertex="1">
          <mxGeometry x="540" y="456.87" width="120" height="40" as="geometry" />
        </mxCell>
        <mxCell id="hjBMN0ESbZGBYcGNyfqj-49" value="&lt;span style=&quot;font-family: &amp;#34;noto_regular&amp;#34; ; font-size: 10pt&quot;&gt;Cancelable Templates&lt;/span&gt;" style="rounded=0;whiteSpace=wrap;html=1;fillColor=#d5e8d4;strokeColor=#82b366;" parent="1" vertex="1">
          <mxGeometry x="540" y="506.87" width="130" height="40" as="geometry" />
        </mxCell>
        <mxCell id="hjBMN0ESbZGBYcGNyfqj-51" value="&lt;p&gt;&lt;font face=&quot;noto_regular&quot;&gt;&lt;span style=&quot;font-size: 13.3333px&quot;&gt;Time-stable&lt;/span&gt;&lt;/font&gt;&lt;br&gt;&lt;/p&gt;" style="rounded=0;whiteSpace=wrap;html=1;fillColor=#d5e8d4;strokeColor=#82b366;" parent="1" vertex="1">
          <mxGeometry x="540" y="556.87" width="125" height="40" as="geometry" />
        </mxCell>
        <mxCell id="O8F0JCfiDlLxA4v2om1o-5" style="edgeStyle=orthogonalEdgeStyle;rounded=0;orthogonalLoop=1;jettySize=auto;html=1;entryX=0;entryY=0.5;entryDx=0;entryDy=0;fillColor=#B2C9AB;strokeColor=#788AA3;fontColor=#46495D;" parent="1" source="O8F0JCfiDlLxA4v2om1o-1" target="O8F0JCfiDlLxA4v2om1o-4" edge="1">
          <mxGeometry relative="1" as="geometry" />
        </mxCell>
        <mxCell id="O8F0JCfiDlLxA4v2om1o-7" style="edgeStyle=orthogonalEdgeStyle;rounded=0;orthogonalLoop=1;jettySize=auto;html=1;entryX=0;entryY=0.5;entryDx=0;entryDy=0;fillColor=#B2C9AB;strokeColor=#788AA3;fontColor=#46495D;" parent="1" source="O8F0JCfiDlLxA4v2om1o-1" target="O8F0JCfiDlLxA4v2om1o-6" edge="1">
          <mxGeometry relative="1" as="geometry" />
        </mxCell>
        <mxCell id="O8F0JCfiDlLxA4v2om1o-1" value="&lt;font face=&quot;Times New Roman&quot;&gt;User&amp;nbsp;&lt;span style=&quot;font-size: 10pt&quot;&gt;Authentication&lt;/span&gt;&lt;/font&gt;" style="rounded=0;whiteSpace=wrap;html=1;fontSize=13;fillColor=#dae8fc;strokeColor=#6c8ebf;" parent="1" vertex="1">
          <mxGeometry x="230" y="534.99" width="120" height="40" as="geometry" />
        </mxCell>
        <mxCell id="O8F0JCfiDlLxA4v2om1o-4" value="&lt;font face=&quot;Times New Roman&quot;&gt;Single factor&lt;/font&gt;" style="rounded=0;whiteSpace=wrap;html=1;fontSize=13;fillColor=#e1d5e7;strokeColor=#9673a6;" parent="1" vertex="1">
          <mxGeometry x="390" y="483.75" width="110" height="40" as="geometry" />
        </mxCell>
        <mxCell id="O8F0JCfiDlLxA4v2om1o-15" value="" style="edgeStyle=orthogonalEdgeStyle;rounded=0;orthogonalLoop=1;jettySize=auto;html=1;fillColor=#B2C9AB;strokeColor=#788AA3;fontColor=#46495D;" parent="1" source="O8F0JCfiDlLxA4v2om1o-6" target="O8F0JCfiDlLxA4v2om1o-14" edge="1">
          <mxGeometry relative="1" as="geometry" />
        </mxCell>
        <mxCell id="O8F0JCfiDlLxA4v2om1o-19" style="edgeStyle=orthogonalEdgeStyle;rounded=0;orthogonalLoop=1;jettySize=auto;html=1;entryX=0;entryY=0.5;entryDx=0;entryDy=0;fillColor=#B2C9AB;strokeColor=#788AA3;fontColor=#46495D;" parent="1" source="O8F0JCfiDlLxA4v2om1o-6" target="O8F0JCfiDlLxA4v2om1o-16" edge="1">
          <mxGeometry relative="1" as="geometry" />
        </mxCell>
        <mxCell id="O8F0JCfiDlLxA4v2om1o-20" style="edgeStyle=orthogonalEdgeStyle;rounded=0;orthogonalLoop=1;jettySize=auto;html=1;entryX=0;entryY=0.5;entryDx=0;entryDy=0;fillColor=#B2C9AB;strokeColor=#788AA3;fontColor=#46495D;" parent="1" source="O8F0JCfiDlLxA4v2om1o-6" target="O8F0JCfiDlLxA4v2om1o-17" edge="1">
          <mxGeometry relative="1" as="geometry" />
        </mxCell>
        <mxCell id="O8F0JCfiDlLxA4v2om1o-21" style="edgeStyle=orthogonalEdgeStyle;rounded=0;orthogonalLoop=1;jettySize=auto;html=1;entryX=0;entryY=0.5;entryDx=0;entryDy=0;fillColor=#B2C9AB;strokeColor=#788AA3;fontColor=#46495D;" parent="1" source="O8F0JCfiDlLxA4v2om1o-6" target="O8F0JCfiDlLxA4v2om1o-18" edge="1">
          <mxGeometry relative="1" as="geometry" />
        </mxCell>
        <mxCell id="O8F0JCfiDlLxA4v2om1o-6" value="&lt;font face=&quot;Times New Roman&quot;&gt;Multi factor&lt;/font&gt;" style="rounded=0;whiteSpace=wrap;html=1;fontSize=13;fillColor=#e1d5e7;strokeColor=#9673a6;" parent="1" vertex="1">
          <mxGeometry x="390" y="601.87" width="110" height="40" as="geometry" />
        </mxCell>
        <mxCell id="O8F0JCfiDlLxA4v2om1o-11" value="&lt;font face=&quot;Times New Roman&quot;&gt;&lt;span style=&quot;font-size: 10pt&quot;&gt;Time &lt;/span&gt;&lt;span style=&quot;font-size: 13.3333px&quot;&gt;domain&lt;/span&gt;&lt;br&gt;&lt;/font&gt;" style="rounded=0;whiteSpace=wrap;html=1;fillColor=#b0e3e6;strokeColor=#0e8088;" parent="1" vertex="1">
          <mxGeometry x="695" y="107.5" width="120" height="40" as="geometry" />
        </mxCell>
        <mxCell id="O8F0JCfiDlLxA4v2om1o-12" value="&lt;font face=&quot;Times New Roman&quot;&gt;&lt;span style=&quot;font-size: 13.3333px&quot;&gt;Frequency-domain&lt;/span&gt;&lt;br&gt;&lt;/font&gt;" style="rounded=0;whiteSpace=wrap;html=1;fillColor=#b0e3e6;strokeColor=#0e8088;" parent="1" vertex="1">
          <mxGeometry x="695" y="157.5" width="120" height="40" as="geometry" />
        </mxCell>
        <mxCell id="O8F0JCfiDlLxA4v2om1o-14" value="&lt;font face=&quot;Times New Roman&quot;&gt;With&amp;nbsp;fitness data&lt;/font&gt;" style="whiteSpace=wrap;html=1;rounded=0;fontSize=13;strokeColor=#82b366;fillColor=#d5e8d4;" parent="1" vertex="1">
          <mxGeometry x="540" y="606.87" width="130" height="30" as="geometry" />
        </mxCell>
        <mxCell id="O8F0JCfiDlLxA4v2om1o-16" value="&lt;font face=&quot;Times New Roman&quot;&gt;With&amp;nbsp;ECG&lt;/font&gt;" style="whiteSpace=wrap;html=1;rounded=0;fontSize=13;strokeColor=#82b366;fillColor=#d5e8d4;" parent="1" vertex="1">
          <mxGeometry x="540" y="646.87" width="130" height="30" as="geometry" />
        </mxCell>
        <mxCell id="O8F0JCfiDlLxA4v2om1o-17" value="&lt;font face=&quot;Times New Roman&quot;&gt;With&amp;nbsp;Face&lt;/font&gt;" style="whiteSpace=wrap;html=1;rounded=0;fontSize=13;strokeColor=#82b366;fillColor=#d5e8d4;" parent="1" vertex="1">
          <mxGeometry x="540" y="686.87" width="130" height="30" as="geometry" />
        </mxCell>
        <mxCell id="O8F0JCfiDlLxA4v2om1o-18" value="&lt;font face=&quot;Times New Roman&quot;&gt;With&amp;nbsp;FingerPrint&lt;/font&gt;" style="whiteSpace=wrap;html=1;rounded=0;fontSize=13;strokeColor=#82b366;fillColor=#d5e8d4;" parent="1" vertex="1">
          <mxGeometry x="540" y="726.87" width="130" height="30" as="geometry" />
        </mxCell>
        <mxCell id="O8F0JCfiDlLxA4v2om1o-26" value="&lt;span style=&quot;font-family: &amp;#34;noto_regular&amp;#34; ; font-size: 10pt&quot;&gt;Eliminate noise&lt;/span&gt;" style="rounded=0;whiteSpace=wrap;html=1;fillColor=#d5e8d4;strokeColor=#82b366;" parent="1" vertex="1">
          <mxGeometry x="540" y="421.24" width="120" height="31.25" as="geometry" />
        </mxCell>
        <mxCell id="O8F0JCfiDlLxA4v2om1o-27" value="&lt;span style=&quot;font-family: &amp;#34;noto_regular&amp;#34; ; font-size: 10pt&quot;&gt;Continuous Authentication&lt;/span&gt;" style="rounded=0;whiteSpace=wrap;html=1;fillColor=#d5e8d4;strokeColor=#82b366;" parent="1" vertex="1">
          <mxGeometry x="540" y="456.87" width="120" height="40" as="geometry" />
        </mxCell>
        <mxCell id="O8F0JCfiDlLxA4v2om1o-28" value="&lt;span style=&quot;font-family: &amp;#34;noto_regular&amp;#34; ; font-size: 10pt&quot;&gt;Cancelable Templates&lt;/span&gt;" style="rounded=0;whiteSpace=wrap;html=1;fillColor=#d5e8d4;strokeColor=#82b366;" parent="1" vertex="1">
          <mxGeometry x="540" y="506.87" width="130" height="40" as="geometry" />
        </mxCell>
        <mxCell id="9mRMOqYm-txZokKRFZZr-3" value="&lt;font face=&quot;noto_regular&quot;&gt;&lt;span style=&quot;font-size: 13.3333px&quot;&gt;Long-term&lt;/span&gt;&lt;/font&gt;" style="rounded=0;whiteSpace=wrap;html=1;fillColor=#b0e3e6;strokeColor=#0e8088;" vertex="1" parent="1">
          <mxGeometry x="705" y="558.75" width="110" height="38.12" as="geometry" />
        </mxCell>
        <mxCell id="9mRMOqYm-txZokKRFZZr-4" style="edgeStyle=orthogonalEdgeStyle;rounded=0;orthogonalLoop=1;jettySize=auto;html=1;fillColor=#B2C9AB;strokeColor=#788AA3;exitX=1;exitY=0.5;exitDx=0;exitDy=0;fontColor=#46495D;entryX=0;entryY=0.5;entryDx=0;entryDy=0;" edge="1" parent="1" source="hjBMN0ESbZGBYcGNyfqj-51" target="9mRMOqYm-txZokKRFZZr-3">
          <mxGeometry relative="1" as="geometry">
            <mxPoint x="685" y="567.8050000000001" as="sourcePoint" />
            <mxPoint x="730" y="600" as="targetPoint" />
          </mxGeometry>
        </mxCell>
        <mxCell id="9mRMOqYm-txZokKRFZZr-5" value="&lt;font face=&quot;noto_regular&quot;&gt;&lt;span style=&quot;font-size: 13.3333px&quot;&gt;Emotion&lt;/span&gt;&lt;/font&gt;" style="rounded=0;whiteSpace=wrap;html=1;fillColor=#b0e3e6;strokeColor=#0e8088;" vertex="1" parent="1">
          <mxGeometry x="705" y="606.87" width="110" height="38.12" as="geometry" />
        </mxCell>
        <mxCell id="9mRMOqYm-txZokKRFZZr-6" style="edgeStyle=orthogonalEdgeStyle;rounded=0;orthogonalLoop=1;jettySize=auto;html=1;fillColor=#B2C9AB;strokeColor=#788AA3;exitX=1;exitY=0.5;exitDx=0;exitDy=0;fontColor=#46495D;entryX=0;entryY=0.5;entryDx=0;entryDy=0;" edge="1" parent="1" source="hjBMN0ESbZGBYcGNyfqj-51" target="9mRMOqYm-txZokKRFZZr-5">
          <mxGeometry relative="1" as="geometry">
            <mxPoint x="675" y="586.8699999999999" as="sourcePoint" />
            <mxPoint x="715" y="587.81" as="targetPoint" />
          </mxGeometry>
        </mxCell>
      </root>
    </mxGraphModel>
  </diagram>
</mxfile>